<?xml version="1.0" encoding="UTF-8"?>
<svg xmlns="http://www.w3.org/2000/svg" xmlns:xlink="http://www.w3.org/1999/xlink" width="169px" height="43px" viewBox="0 0 100 43" version="1.1">
<defs>
<clipPath id="clip1">
  <path d="M 50 5.792969 L 95.691406 5.792969 L 95.691406 39.960938 L 50 39.960938 Z M 50 5.792969 "/>
</clipPath>
<clipPath id="clip2">
  <path d="M 47.878906 10.773438 L 92.019531 -0.0078125 L 99.699219 31.902344 L 55.554688 42.683594 Z M 47.878906 10.773438 "/>
</clipPath>
<clipPath id="clip3">
  <path d="M 47.878906 10.773438 L 92.019531 -0.0078125 L 99.699219 31.902344 L 55.554688 42.683594 Z M 47.878906 10.773438 "/>
</clipPath>
<clipPath id="clip4">
  <path d="M 0.167969 17.609375 L 8.394531 17.609375 L 8.394531 25.898438 L 0.167969 25.898438 Z M 0.167969 17.609375 "/>
</clipPath>
<clipPath id="clip5">
  <path d="M 14 26.640625 L 18.390625 26.640625 L 18.390625 30.402344 L 14 30.402344 Z M 14 26.640625 "/>
</clipPath>
<clipPath id="clip6">
  <path d="M 52.011719 26.640625 L 56.804688 26.640625 L 56.804688 30.402344 L 52.011719 30.402344 Z M 52.011719 26.640625 "/>
</clipPath>
</defs>
<g id="surface1">
<g clip-path="url(#clip1)" clip-rule="nonzero">
<g clip-path="url(#clip2)" clip-rule="nonzero">
<g clip-path="url(#clip3)" clip-rule="nonzero">
<path style=" stroke:none;fill-rule:nonzero;fill:rgb(61.176473%,100%,11.764706%);fill-opacity:1;" d="M 94.671875 15.078125 C 94.835938 15.710938 95.183594 16.085938 95.46875 16.296875 C 95.039062 16.882812 94.605469 17.464844 94.171875 18.046875 C 93.699219 17.6875 92.933594 16.929688 92.597656 15.648438 C 91.800781 16.722656 90.996094 17.789062 90.179688 18.847656 C 89.25 20.054688 88.304688 21.253906 87.347656 22.441406 C 86.386719 23.632812 85.414062 24.808594 84.421875 25.972656 C 83.433594 27.136719 82.421875 28.289062 81.386719 29.417969 C 80.351562 30.546875 79.292969 31.660156 78.195312 32.742188 C 77.097656 33.820312 75.964844 34.871094 74.765625 35.867188 C 73.558594 36.859375 72.300781 37.800781 70.863281 38.578125 C 70.140625 38.964844 69.371094 39.304688 68.507812 39.519531 C 68.070312 39.621094 67.609375 39.6875 67.117188 39.683594 C 66.875 39.679688 66.621094 39.652344 66.371094 39.609375 C 66.117188 39.558594 65.863281 39.484375 65.621094 39.382812 C 65.375 39.277344 65.140625 39.152344 64.921875 39 C 64.726562 38.847656 64.523438 38.707031 64.351562 38.523438 C 64.164062 38.351562 64.007812 38.148438 63.855469 37.949219 C 63.785156 37.84375 63.714844 37.738281 63.648438 37.628906 C 63.613281 37.578125 63.585938 37.523438 63.558594 37.464844 L 63.472656 37.300781 C 63.257812 36.851562 63.113281 36.378906 63.042969 35.925781 L 63.011719 35.753906 L 62.992188 35.582031 C 62.980469 35.46875 62.96875 35.355469 62.960938 35.242188 C 62.953125 35.023438 62.9375 34.796875 62.949219 34.582031 C 62.96875 33.710938 63.101562 32.886719 63.285156 32.097656 C 63.46875 31.308594 63.699219 30.546875 63.957031 29.800781 C 64.46875 28.308594 65.074219 26.882812 65.707031 25.480469 C 66.335938 24.074219 66.996094 22.699219 67.648438 21.324219 C 68.300781 19.953125 68.949219 18.585938 69.550781 17.214844 C 70.148438 15.84375 70.710938 14.460938 71.117188 13.078125 C 71.316406 12.390625 71.476562 11.699219 71.550781 11.039062 L 71.570312 10.792969 L 71.582031 10.667969 L 71.585938 10.550781 C 71.585938 10.472656 71.589844 10.390625 71.589844 10.3125 L 71.578125 10.085938 C 71.558594 9.789062 71.507812 9.507812 71.421875 9.273438 C 71.335938 9.042969 71.21875 8.855469 71.0625 8.695312 C 71.023438 8.652344 70.988281 8.609375 70.9375 8.578125 L 70.871094 8.523438 C 70.847656 8.503906 70.828125 8.484375 70.796875 8.46875 C 70.738281 8.433594 70.683594 8.398438 70.628906 8.359375 L 70.449219 8.269531 C 70.207031 8.15625 69.949219 8.082031 69.667969 8.035156 C 69.386719 7.992188 69.085938 7.992188 68.777344 8.015625 C 68.160156 8.0625 67.507812 8.238281 66.863281 8.472656 C 66.21875 8.714844 65.582031 9.019531 64.953125 9.363281 C 63.695312 10.058594 62.484375 10.898438 61.3125 11.796875 C 60.144531 12.699219 59.011719 13.664062 57.910156 14.671875 C 56.808594 15.679688 55.734375 16.722656 54.6875 17.796875 C 54.164062 18.332031 53.648438 18.875 53.140625 19.425781 C 52.886719 19.703125 52.632812 19.976562 52.382812 20.253906 C 52.136719 20.53125 51.882812 20.816406 51.648438 21.089844 L 50.019531 19.679688 C 50.28125 19.375 50.53125 19.089844 50.792969 18.800781 C 51.046875 18.515625 51.308594 18.230469 51.570312 17.949219 C 52.089844 17.386719 52.621094 16.828125 53.15625 16.28125 C 54.226562 15.179688 55.328125 14.109375 56.464844 13.070312 C 57.605469 12.027344 58.777344 11.023438 60.011719 10.078125 C 61.242188 9.132812 62.527344 8.234375 63.921875 7.464844 C 64.621094 7.082031 65.351562 6.730469 66.121094 6.441406 C 66.898438 6.160156 67.71875 5.929688 68.609375 5.859375 C 69.054688 5.824219 69.511719 5.824219 69.980469 5.894531 C 70.445312 5.96875 70.917969 6.101562 71.363281 6.3125 C 71.472656 6.367188 71.582031 6.421875 71.691406 6.480469 L 72 6.675781 C 72.050781 6.707031 72.105469 6.75 72.15625 6.789062 L 72.308594 6.914062 C 72.414062 6.988281 72.507812 7.089844 72.601562 7.183594 C 72.972656 7.566406 73.257812 8.039062 73.4375 8.523438 C 73.613281 9.003906 73.6875 9.484375 73.722656 9.945312 L 73.738281 10.285156 C 73.738281 10.398438 73.734375 10.507812 73.730469 10.621094 L 73.726562 10.785156 L 73.714844 10.949219 L 73.6875 11.269531 C 73.589844 12.121094 73.402344 12.917969 73.175781 13.691406 C 72.722656 15.230469 72.132812 16.671875 71.511719 18.085938 C 70.894531 19.503906 70.238281 20.882812 69.585938 22.261719 C 68.933594 23.632812 68.277344 25 67.664062 26.371094 C 67.046875 27.742188 66.464844 29.121094 65.984375 30.507812 C 65.746094 31.203125 65.535156 31.898438 65.375 32.589844 C 65.214844 33.28125 65.109375 33.96875 65.09375 34.621094 C 65.085938 34.789062 65.101562 34.941406 65.101562 35.101562 C 65.109375 35.179688 65.117188 35.253906 65.125 35.332031 L 65.136719 35.445312 L 65.15625 35.554688 C 65.203125 35.851562 65.289062 36.113281 65.402344 36.351562 L 65.445312 36.4375 C 65.460938 36.46875 65.472656 36.5 65.492188 36.523438 C 65.527344 36.578125 65.5625 36.628906 65.597656 36.683594 C 65.679688 36.78125 65.75 36.886719 65.847656 36.96875 C 65.929688 37.0625 66.042969 37.136719 66.140625 37.21875 C 66.238281 37.285156 66.335938 37.335938 66.441406 37.382812 C 66.546875 37.425781 66.65625 37.457031 66.773438 37.484375 C 66.894531 37.503906 67.019531 37.515625 67.152344 37.519531 C 67.417969 37.523438 67.710938 37.484375 68.011719 37.414062 C 68.613281 37.265625 69.242188 36.996094 69.855469 36.667969 C 71.085938 36.003906 72.269531 35.128906 73.402344 34.195312 C 74.539062 33.253906 75.628906 32.242188 76.695312 31.195312 C 77.757812 30.144531 78.792969 29.058594 79.808594 27.953125 C 80.824219 26.84375 81.816406 25.710938 82.792969 24.5625 C 83.769531 23.417969 84.734375 22.253906 85.679688 21.078125 C 86.628906 19.902344 87.5625 18.71875 88.484375 17.519531 C 89.292969 16.472656 90.089844 15.414062 90.878906 14.351562 C 89.566406 14.382812 88.636719 13.839844 88.164062 13.480469 C 88.585938 12.921875 89 12.359375 89.414062 11.792969 C 89.699219 12.003906 90.152344 12.234375 90.792969 12.210938 C 91.433594 12.191406 92.265625 11.917969 93.265625 11.132812 L 94.949219 12.328125 C 94.519531 13.570312 94.507812 14.449219 94.671875 15.078125 Z M 94.671875 15.078125 "/>
</g>
</g>
</g>
<g clip-path="url(#clip4)" clip-rule="nonzero">
<path style=" stroke:none;fill-rule:nonzero;fill:rgb(61.176473%,100%,11.764706%);fill-opacity:1;" d="M 8.367188 20.617188 L 8.367188 22.882812 C 5.640625 23.6875 5.234375 25.113281 5.234375 25.890625 L 2.890625 25.890625 C 2.890625 25.242188 3.039062 24.066406 3.933594 22.929688 L 0.171875 22.929688 L 0.171875 20.566406 L 3.933594 20.566406 C 3.039062 19.433594 2.890625 18.257812 2.890625 17.609375 L 5.234375 17.609375 C 5.234375 18.386719 5.640625 19.8125 8.367188 20.617188 Z M 8.367188 20.617188 "/>
</g>
<path style=" stroke:none;fill-rule:nonzero;fill:rgb(100%,100%,100%);fill-opacity:1;" d="M 17.238281 24.800781 L 17.238281 19.78125 L 14.121094 19.78125 L 14.121094 17.476562 L 23.054688 17.476562 L 23.054688 19.78125 L 19.9375 19.78125 L 19.9375 24.800781 Z M 17.238281 24.800781 "/>
<path style=" stroke:none;fill-rule:nonzero;fill:rgb(100%,100%,100%);fill-opacity:1;" d="M 27.9375 24.90625 C 26.339844 24.90625 25.175781 24.597656 24.453125 23.972656 C 23.726562 23.351562 23.367188 22.402344 23.367188 21.128906 L 23.367188 17.476562 L 26.070312 17.476562 L 26.070312 21.128906 C 26.070312 21.386719 26.113281 21.628906 26.203125 21.855469 C 26.292969 22.082031 26.472656 22.265625 26.742188 22.398438 C 27.011719 22.535156 27.410156 22.601562 27.9375 22.601562 C 28.46875 22.601562 28.871094 22.535156 29.136719 22.394531 C 29.402344 22.257812 29.582031 22.078125 29.671875 21.851562 C 29.761719 21.628906 29.804688 21.386719 29.804688 21.128906 L 29.804688 17.476562 L 32.507812 17.476562 L 32.507812 21.128906 C 32.507812 22.398438 32.144531 23.34375 31.417969 23.96875 C 30.691406 24.59375 29.53125 24.90625 27.9375 24.90625 Z M 27.9375 24.90625 "/>
<path style=" stroke:none;fill-rule:nonzero;fill:rgb(100%,100%,100%);fill-opacity:1;" d="M 32.921875 24.800781 L 32.921875 17.476562 L 36.457031 17.476562 L 39.589844 21.796875 L 39.589844 17.476562 L 42.292969 17.476562 L 42.292969 24.800781 L 38.761719 24.800781 L 35.625 20.480469 L 35.625 24.800781 Z M 32.921875 24.800781 "/>
<path style=" stroke:none;fill-rule:nonzero;fill:rgb(100%,100%,100%);fill-opacity:1;" d="M 42.605469 24.800781 L 45.617188 17.476562 L 49.628906 17.476562 L 52.636719 24.800781 L 49.667969 24.800781 L 49.167969 23.484375 L 46.074219 23.484375 L 45.578125 24.800781 Z M 46.78125 21.597656 L 48.464844 21.597656 L 47.621094 19.359375 Z M 46.78125 21.597656 "/>
<path style=" stroke:none;fill-rule:nonzero;fill:rgb(100%,100%,100%);fill-opacity:1;" d="M 57.488281 24.90625 C 56.5 24.90625 55.65625 24.832031 54.964844 24.6875 C 54.273438 24.542969 53.746094 24.273438 53.386719 23.886719 C 53.027344 23.5 52.847656 22.941406 52.847656 22.21875 L 55.550781 22.21875 C 55.550781 22.335938 55.601562 22.441406 55.703125 22.53125 C 55.804688 22.621094 56.003906 22.691406 56.300781 22.742188 C 56.597656 22.792969 57.027344 22.816406 57.59375 22.816406 C 58.125 22.816406 58.523438 22.804688 58.785156 22.78125 C 59.050781 22.753906 59.222656 22.710938 59.308594 22.65625 C 59.390625 22.601562 59.433594 22.527344 59.433594 22.4375 C 59.433594 22.335938 59.390625 22.257812 59.304688 22.207031 C 59.214844 22.152344 59.035156 22.113281 58.753906 22.085938 C 58.480469 22.0625 58.058594 22.042969 57.488281 22.027344 C 56.394531 21.992188 55.515625 21.898438 54.847656 21.75 C 54.183594 21.59375 53.699219 21.351562 53.398438 21.019531 C 53.097656 20.6875 52.949219 20.242188 52.949219 19.675781 C 52.949219 18.863281 53.328125 18.277344 54.089844 17.917969 C 54.855469 17.554688 55.953125 17.375 57.386719 17.375 C 58.335938 17.375 59.136719 17.457031 59.792969 17.625 C 60.449219 17.792969 60.953125 18.0625 61.300781 18.4375 C 61.648438 18.808594 61.820312 19.308594 61.820312 19.933594 L 59.117188 19.933594 C 59.117188 19.742188 58.957031 19.613281 58.636719 19.554688 C 58.320312 19.492188 57.835938 19.464844 57.179688 19.464844 C 56.757812 19.464844 56.4375 19.472656 56.21875 19.492188 C 56 19.507812 55.851562 19.542969 55.769531 19.589844 C 55.691406 19.640625 55.652344 19.710938 55.652344 19.8125 C 55.652344 19.902344 55.695312 19.96875 55.777344 20.011719 C 55.863281 20.054688 56.039062 20.082031 56.304688 20.097656 C 56.566406 20.109375 56.960938 20.125 57.488281 20.148438 C 58.210938 20.171875 58.855469 20.21875 59.425781 20.277344 C 59.996094 20.335938 60.480469 20.4375 60.882812 20.585938 C 61.289062 20.730469 61.59375 20.945312 61.808594 21.226562 C 62.023438 21.511719 62.132812 21.894531 62.132812 22.371094 C 62.132812 23.042969 61.949219 23.5625 61.589844 23.929688 C 61.230469 24.292969 60.707031 24.550781 60.015625 24.695312 C 59.328125 24.835938 58.484375 24.90625 57.488281 24.90625 Z M 57.488281 24.90625 "/>
<path style=" stroke:none;fill-rule:nonzero;fill:rgb(100%,100%,100%);fill-opacity:1;" d="M 66.910156 24.90625 C 65.3125 24.90625 64.152344 24.597656 63.425781 23.972656 C 62.703125 23.351562 62.339844 22.402344 62.339844 21.128906 C 62.339844 19.859375 62.703125 18.914062 63.425781 18.300781 C 64.152344 17.683594 65.3125 17.375 66.910156 17.375 C 68.503906 17.375 69.664062 17.683594 70.390625 18.300781 C 71.117188 18.914062 71.480469 19.859375 71.480469 21.128906 C 71.480469 22.398438 71.117188 23.34375 70.390625 23.96875 C 69.664062 24.59375 68.503906 24.90625 66.910156 24.90625 Z M 66.910156 22.601562 C 67.445312 22.601562 67.84375 22.535156 68.109375 22.394531 C 68.375 22.257812 68.554688 22.078125 68.644531 21.851562 C 68.734375 21.628906 68.777344 21.386719 68.777344 21.128906 C 68.777344 20.871094 68.734375 20.632812 68.644531 20.414062 C 68.554688 20.195312 68.375 20.015625 68.109375 19.878906 C 67.84375 19.742188 67.445312 19.675781 66.910156 19.675781 C 66.378906 19.675781 65.980469 19.742188 65.710938 19.878906 C 65.445312 20.015625 65.269531 20.195312 65.179688 20.414062 C 65.089844 20.632812 65.042969 20.871094 65.042969 21.128906 C 65.042969 21.386719 65.089844 21.628906 65.179688 21.855469 C 65.269531 22.082031 65.449219 22.265625 65.71875 22.398438 C 65.988281 22.535156 66.382812 22.601562 66.910156 22.601562 Z M 66.910156 22.601562 "/>
<path style=" stroke:none;fill-rule:nonzero;fill:rgb(100%,100%,100%);fill-opacity:1;" d="M 71.792969 24.800781 L 71.792969 17.476562 L 79.480469 17.476562 L 79.480469 19.78125 L 74.496094 19.78125 L 74.496094 20.5625 L 78.855469 20.5625 L 78.855469 22.867188 L 74.496094 22.867188 L 74.496094 24.800781 Z M 71.792969 24.800781 "/>
<path style=" stroke:none;fill-rule:nonzero;fill:rgb(100%,100%,100%);fill-opacity:1;" d="M 82.804688 24.800781 L 82.804688 19.78125 L 79.6875 19.78125 L 79.6875 17.476562 L 88.617188 17.476562 L 88.617188 19.78125 L 85.5 19.78125 L 85.5 24.800781 Z M 82.804688 24.800781 "/>
<g clip-path="url(#clip5)" clip-rule="nonzero">
<path style=" stroke:none;fill-rule:nonzero;fill:rgb(61.176473%,100%,11.764706%);fill-opacity:1;" d="M 15.511719 30.167969 L 15.511719 27.839844 L 14.070312 27.839844 L 14.070312 26.777344 L 18.199219 26.777344 L 18.199219 27.839844 L 16.757812 27.839844 L 16.757812 30.167969 Z M 15.511719 30.167969 "/>
</g>
<path style=" stroke:none;fill-rule:nonzero;fill:rgb(61.176473%,100%,11.764706%);fill-opacity:1;" d="M 18.339844 30.167969 L 18.339844 26.777344 L 21.898438 26.777344 L 21.898438 27.746094 L 19.59375 27.746094 L 19.59375 28.0625 L 21.898438 28.0625 L 21.898438 28.882812 L 19.59375 28.882812 L 19.59375 29.199219 L 21.898438 29.199219 L 21.898438 30.167969 Z M 18.339844 30.167969 "/>
<path style=" stroke:none;fill-rule:nonzero;fill:rgb(61.176473%,100%,11.764706%);fill-opacity:1;" d="M 24.109375 30.214844 C 23.367188 30.214844 22.828125 30.074219 22.492188 29.785156 C 22.160156 29.496094 21.996094 29.058594 21.996094 28.464844 C 21.996094 27.882812 22.160156 27.445312 22.492188 27.15625 C 22.828125 26.871094 23.367188 26.726562 24.109375 26.726562 C 24.78125 26.726562 25.289062 26.851562 25.640625 27.097656 C 25.992188 27.347656 26.183594 27.738281 26.207031 28.277344 L 24.925781 28.277344 C 24.90625 28.113281 24.828125 27.992188 24.699219 27.914062 C 24.570312 27.835938 24.371094 27.796875 24.109375 27.796875 C 23.859375 27.796875 23.675781 27.828125 23.554688 27.890625 C 23.429688 27.953125 23.347656 28.035156 23.304688 28.136719 C 23.261719 28.238281 23.242188 28.347656 23.242188 28.464844 C 23.242188 28.585938 23.261719 28.699219 23.304688 28.804688 C 23.347656 28.910156 23.429688 28.996094 23.554688 29.058594 C 23.679688 29.121094 23.863281 29.148438 24.109375 29.148438 C 24.371094 29.148438 24.570312 29.109375 24.699219 29.027344 C 24.828125 28.945312 24.90625 28.824219 24.925781 28.660156 L 26.207031 28.660156 C 26.183594 29.199219 25.996094 29.589844 25.644531 29.839844 C 25.296875 30.09375 24.785156 30.214844 24.109375 30.214844 Z M 24.109375 30.214844 "/>
<path style=" stroke:none;fill-rule:nonzero;fill:rgb(61.176473%,100%,11.764706%);fill-opacity:1;" d="M 26.347656 30.167969 L 26.347656 26.777344 L 27.601562 26.777344 L 27.601562 27.941406 L 29.570312 27.941406 L 29.570312 26.777344 L 30.820312 26.777344 L 30.820312 30.167969 L 29.570312 30.167969 L 29.570312 29.003906 L 27.601562 29.003906 L 27.601562 30.167969 Z M 26.347656 30.167969 "/>
<path style=" stroke:none;fill-rule:nonzero;fill:rgb(61.176473%,100%,11.764706%);fill-opacity:1;" d="M 31.007812 30.167969 L 31.007812 26.777344 L 32.644531 26.777344 L 34.09375 28.777344 L 34.09375 26.777344 L 35.347656 26.777344 L 35.347656 30.167969 L 33.710938 30.167969 L 32.261719 28.167969 L 32.261719 30.167969 Z M 31.007812 30.167969 "/>
<path style=" stroke:none;fill-rule:nonzero;fill:rgb(61.176473%,100%,11.764706%);fill-opacity:1;" d="M 37.605469 30.214844 C 36.859375 30.214844 36.320312 30.074219 35.988281 29.785156 C 35.65625 29.496094 35.488281 29.058594 35.488281 28.464844 C 35.488281 27.882812 35.65625 27.445312 35.988281 27.15625 C 36.320312 26.871094 36.859375 26.726562 37.605469 26.726562 C 38.339844 26.726562 38.875 26.871094 39.210938 27.15625 C 39.546875 27.445312 39.714844 27.882812 39.714844 28.464844 C 39.714844 29.054688 39.546875 29.492188 39.210938 29.78125 C 38.875 30.070312 38.339844 30.214844 37.605469 30.214844 Z M 37.605469 29.148438 C 37.847656 29.148438 38.03125 29.117188 38.15625 29.054688 C 38.277344 28.988281 38.359375 28.902344 38.402344 28.800781 C 38.445312 28.699219 38.464844 28.585938 38.464844 28.464844 C 38.464844 28.347656 38.445312 28.238281 38.402344 28.136719 C 38.359375 28.035156 38.277344 27.953125 38.15625 27.890625 C 38.03125 27.828125 37.847656 27.796875 37.605469 27.796875 C 37.355469 27.796875 37.167969 27.828125 37.046875 27.890625 C 36.921875 27.953125 36.84375 28.035156 36.800781 28.136719 C 36.757812 28.238281 36.738281 28.347656 36.738281 28.464844 C 36.738281 28.585938 36.757812 28.699219 36.800781 28.804688 C 36.84375 28.910156 36.921875 28.996094 37.046875 29.058594 C 37.171875 29.121094 37.359375 29.148438 37.605469 29.148438 Z M 37.605469 29.148438 "/>
<path style=" stroke:none;fill-rule:nonzero;fill:rgb(61.176473%,100%,11.764706%);fill-opacity:1;" d="M 39.859375 30.167969 L 39.859375 26.777344 L 41.109375 26.777344 L 41.109375 29.105469 L 43.320312 29.105469 L 43.320312 30.167969 Z M 39.859375 30.167969 "/>
<path style=" stroke:none;fill-rule:nonzero;fill:rgb(61.176473%,100%,11.764706%);fill-opacity:1;" d="M 45.53125 30.214844 C 44.789062 30.214844 44.25 30.074219 43.914062 29.785156 C 43.582031 29.496094 43.414062 29.058594 43.414062 28.464844 C 43.414062 27.882812 43.582031 27.445312 43.914062 27.15625 C 44.25 26.871094 44.789062 26.726562 45.53125 26.726562 C 46.265625 26.726562 46.800781 26.871094 47.136719 27.15625 C 47.472656 27.445312 47.640625 27.882812 47.640625 28.464844 C 47.640625 29.054688 47.472656 29.492188 47.136719 29.78125 C 46.800781 30.070312 46.265625 30.214844 45.53125 30.214844 Z M 45.53125 29.148438 C 45.773438 29.148438 45.960938 29.117188 46.082031 29.054688 C 46.203125 28.988281 46.285156 28.902344 46.328125 28.800781 C 46.371094 28.699219 46.390625 28.585938 46.390625 28.464844 C 46.390625 28.347656 46.371094 28.238281 46.328125 28.136719 C 46.285156 28.035156 46.203125 27.953125 46.082031 27.890625 C 45.960938 27.828125 45.773438 27.796875 45.53125 27.796875 C 45.28125 27.796875 45.097656 27.828125 44.972656 27.890625 C 44.851562 27.953125 44.769531 28.035156 44.726562 28.136719 C 44.683594 28.238281 44.664062 28.347656 44.664062 28.464844 C 44.664062 28.585938 44.683594 28.699219 44.726562 28.804688 C 44.769531 28.910156 44.851562 28.996094 44.972656 29.058594 C 45.097656 29.121094 45.285156 29.148438 45.53125 29.148438 Z M 45.53125 29.148438 "/>
<path style=" stroke:none;fill-rule:nonzero;fill:rgb(61.176473%,100%,11.764706%);fill-opacity:1;" d="M 49.707031 30.214844 C 49.089844 30.214844 48.605469 30.074219 48.261719 29.785156 C 47.910156 29.496094 47.738281 29.058594 47.738281 28.464844 C 47.738281 27.882812 47.917969 27.445312 48.273438 27.15625 C 48.632812 26.871094 49.160156 26.726562 49.855469 26.726562 C 51.199219 26.726562 51.898438 27.195312 51.949219 28.132812 L 50.671875 28.132812 C 50.648438 28.042969 50.574219 27.96875 50.441406 27.898438 C 50.3125 27.832031 50.117188 27.796875 49.855469 27.796875 C 49.605469 27.796875 49.417969 27.828125 49.296875 27.890625 C 49.171875 27.953125 49.089844 28.039062 49.050781 28.148438 C 49.007812 28.257812 48.988281 28.378906 48.988281 28.515625 C 48.988281 28.652344 49.007812 28.78125 49.050781 28.898438 C 49.089844 29.019531 49.171875 29.113281 49.296875 29.183594 C 49.421875 29.257812 49.609375 29.292969 49.855469 29.292969 C 50.09375 29.292969 50.28125 29.273438 50.425781 29.234375 C 50.566406 29.191406 50.648438 29.113281 50.671875 29 L 49.769531 29 L 49.769531 28.320312 L 51.949219 28.320312 L 51.949219 30.167969 L 51.230469 30.167969 L 51.136719 29.679688 C 50.996094 29.847656 50.8125 29.980469 50.582031 30.078125 C 50.351562 30.167969 50.058594 30.214844 49.707031 30.214844 Z M 49.707031 30.214844 "/>
<g clip-path="url(#clip6)" clip-rule="nonzero">
<path style=" stroke:none;fill-rule:nonzero;fill:rgb(61.176473%,100%,11.764706%);fill-opacity:1;" d="M 53.757812 30.167969 L 53.757812 29.054688 L 52.046875 26.777344 L 53.488281 26.777344 L 54.382812 28.035156 L 55.277344 26.777344 L 56.71875 26.777344 L 55.007812 29.054688 L 55.007812 30.167969 Z M 53.757812 30.167969 "/>
</g>
</g>
</svg>
